#N canvas 608 53 743 499 10;
#X obj 132 13 adc~;
#X obj 160 428 dac~;
#X obj 589 240 delay~ 44100 44100;
#X obj 230 112 delay~ 6000 6000;
#X obj 354 146 delay~ 12000 12000;
#X obj 490 200 delay~ 20000 20000;
#X obj 92 94 delay~ 5000 5000;
#X obj 90 139 *~ 1;
#X obj 231 153 *~ 0.7;
#X obj 353 187 *~ 0.5;
#X obj 489 237 *~ 0.4;
#X obj 584 305 *~ 0.2;
#X obj 288 266 lop~ 1000;
#X obj 88 209 lop~ 9000;
#X obj 189 233 lop~ 6000;
#X obj 375 297 lop~ 800;
#X obj 470 342 lop~ 600;
#X connect 0 0 3 0;
#X connect 0 0 4 0;
#X connect 0 0 5 0;
#X connect 0 0 2 0;
#X connect 0 0 6 0;
#X connect 2 0 11 0;
#X connect 3 0 8 0;
#X connect 4 0 9 0;
#X connect 5 0 10 0;
#X connect 6 0 7 0;
#X connect 7 0 13 0;
#X connect 8 0 14 0;
#X connect 9 0 12 0;
#X connect 10 0 15 0;
#X connect 11 0 16 0;
#X connect 12 0 1 0;
#X connect 13 0 1 0;
#X connect 14 0 1 1;
#X connect 15 0 1 1;
#X connect 16 0 1 0;
