#N canvas 608 53 743 499 10;
#X obj 132 13 adc~;
#X obj 160 428 dac~;
#X obj 152 148 delay~ 44100 44100;
#X obj 140 245 *~;
#X obj 202 259 cycle~ 500;
#X floatatom 204 226 5 0 0 0 - - -;
#X obj 354 339 cycle~ 600;
#X obj 360 386 *~;
#X obj 505 288 line~;
#X msg 513 253 1 \, 0 100;
#X obj 493 47 key;
#X obj 483 185 bng 15 250 50 0 empty empty empty 17 7 0 10 -262144
-1 -1;
#X floatatom 428 255 5 0 0 0 - - -;
#X floatatom 505 365 5 0 0 0 - - -;
#X obj 453 318 slide~ 22;
#X obj 395 115 key;
#X obj 351 158 sel 113 119;
#X obj 344 184 bng 15 250 50 0 empty empty empty 17 7 0 10 -262144
-1 -1;
#X obj 380 184 bng 15 250 50 0 empty empty empty 17 7 0 10 -262144
-1 -1;
#X msg 342 215 400;
#X msg 352 225 4000;
#X obj 480 153 maxlib/scale 97 125 400 4000;
#X obj 480 82 split 97 125;
#X floatatom 538 112 5 0 0 0 - - -;
#X floatatom 485 110 5 0 0 0 - - -;
#X connect 0 0 2 0;
#X connect 2 0 3 0;
#X connect 3 0 1 1;
#X connect 4 0 3 1;
#X connect 5 0 4 0;
#X connect 6 0 7 0;
#X connect 7 0 1 0;
#X connect 8 0 14 0;
#X connect 9 0 8 0;
#X connect 10 0 22 0;
#X connect 11 0 9 0;
#X connect 12 0 6 0;
#X connect 13 0 14 1;
#X connect 14 0 7 1;
#X connect 16 0 17 0;
#X connect 16 1 18 0;
#X connect 17 0 19 0;
#X connect 17 0 9 0;
#X connect 18 0 20 0;
#X connect 18 0 9 0;
#X connect 19 0 6 0;
#X connect 20 0 6 0;
#X connect 21 0 11 0;
#X connect 21 0 12 0;
#X connect 22 0 24 0;
#X connect 22 1 23 0;
#X connect 24 0 21 0;
