#N canvas 449 22 792 468 10;
#X obj 496 245 print;
#X text 166 33 ip number + port;
#X msg 119 86 disconnect;
#X msg 167 119 send freq 123;
#X msg 175 143 send amp 0.5;
#X obj 385 163 dumpOSC 6789;
#X msg 102 58 connect 127.0.0.1 6789;
#X obj 134 223 sendOSC;
#X text 282 63 127.0.0.1= loopback ip. useful for sending between patches/programs
within the computer itself;
#X floatatom 359 231 5 0 0 0 - - -;
#X floatatom 413 229 5 0 0 0 - - -;
#X msg 179 180 send hello will not match;
#X obj 396 338 line~;
#X obj 371 364 *~;
#X obj 352 306 cycle~ 600;
#X obj 357 398 dac~;
#X msg 428 304 0.5 \, 0 200;
#X obj 427 275 bng 15 250 50 0 empty empty empty 17 7 0 10 -262144
-1 -1;
#X obj 385 198 route freq amp;
#X text 481 200 sort different messages;
#X text 536 244 if not recognised - just post it;
#X connect 2 0 7 0;
#X connect 3 0 7 0;
#X connect 4 0 7 0;
#X connect 5 0 18 0;
#X connect 6 0 7 0;
#X connect 9 0 17 0;
#X connect 11 0 7 0;
#X connect 12 0 13 1;
#X connect 13 0 15 0;
#X connect 13 0 15 1;
#X connect 14 0 13 0;
#X connect 16 0 12 0;
#X connect 17 0 16 0;
#X connect 18 0 9 0;
#X connect 18 1 10 0;
#X connect 18 2 0 0;
